<svg width="118" height="126" viewBox="0 0 118 126" fill="none" xmlns="http://www.w3.org/2000/svg">
<g clip-path="url(#clip0_16_212)">
<path d="M107.419 83.1303V0.336426H10.4252L0.412994 6.28135V125.663H102.864V115.013H117.589C117.588 115.013 107.418 106.813 107.418 83.1303H107.419ZM100.682 65.2472H83.1404V46.3975H100.677V65.2468L100.682 65.2472ZM57.7598 24.6478V43.4975H38.1493V24.6478H57.7598ZM60.6473 24.6478H80.2578V43.4975H60.6473V24.6478ZM17.1644 24.6478H35.2614V43.4975H17.1616V24.6478H17.1644ZM17.1644 46.398H35.2614V65.2477H17.1616V46.3985L17.1644 46.398ZM17.1644 68.1467H35.2614V83.1337C35.2614 84.4832 35.2898 85.7683 35.3413 86.9974H17.1596V68.1467H17.1644ZM38.1493 83.1337V68.1467H57.7598V83.1337C57.7598 84.4832 57.7882 85.7683 57.8397 86.9974H38.2316C38.1782 85.7746 38.1493 84.4904 38.1493 83.1337ZM38.1493 65.2468V46.397H57.7598V65.2463H38.1493V65.2468ZM60.6473 46.398H80.2578V65.2472H60.6473V46.398ZM100.682 43.498H83.1452V24.6483H100.682V43.498ZM35.5175 89.8974C36.2783 99.4808 38.634 105.037 40.9814 108.246H22.1525C21.6943 107.84 20.9277 106.98 20.1231 105.298C18.9099 102.765 17.4922 98.0864 17.2164 89.8988H35.5165L35.5175 89.8974ZM44.8289 108.246C42.5642 106.157 39.3428 101.236 38.4121 89.8974H58.0154C58.7762 99.4808 61.1319 105.037 63.4794 108.246H44.8289ZM67.3269 108.246C65.0622 106.157 61.8407 101.236 60.91 89.8974H80.5133C81.2741 99.4808 83.6298 105.037 85.9773 108.246H67.3269ZM60.7305 86.9974C60.6776 85.7746 60.6482 84.4899 60.6482 83.1337V68.1467H80.2587V83.1337C80.2587 84.4832 80.2871 85.7683 80.3386 86.9974H60.7305ZM83.1461 83.1337V68.1467H100.683V86.0327C100.683 86.3575 100.688 86.6765 100.692 86.9974H83.2285C83.175 85.7746 83.1461 84.4904 83.1461 83.1337ZM96.1281 118.896H7.14697V10.1426L10.4218 8.19871V87.0003C10.4218 113.1 20.5918 115.013 20.5918 115.013H96.1223V118.896H96.1281ZM102.865 108.246H89.8243C87.5596 106.157 84.3382 101.236 83.4075 89.8974H100.767C101.072 97.0289 102.239 103.171 104.257 108.246H102.865Z" fill="#F45700"/>
</g>
<defs>
<clipPath id="clip0_16_212">
<rect width="118" height="126" fill="white"/>
</clipPath>
</defs>
</svg>
