<svg width="310" height="56" viewBox="0 0 310 56" fill="none" xmlns="http://www.w3.org/2000/svg">
<g clip-path="url(#clip0_49_6)">
<path d="M61.8924 0.470703C56.4542 0.470703 51.138 2.07386 46.6163 5.07745C42.0946 8.08105 38.5703 12.3502 36.4892 17.345C34.4081 22.3397 33.8635 27.8359 34.9245 33.1383C35.9854 38.4407 38.6042 43.3114 42.4496 47.1342C46.295 50.957 51.1944 53.5604 56.5281 54.6152C61.8619 55.6699 67.3905 55.1286 72.4147 53.0596C77.439 50.9907 81.7333 47.4872 84.7547 42.992C87.776 38.4968 89.3886 33.2119 89.3886 27.8055C89.3886 20.5559 86.4917 13.6032 81.3352 8.47689C76.1786 3.35062 69.1848 0.470703 61.8924 0.470703ZM61.8924 42.4324C59.0112 42.4324 56.1947 41.583 53.7991 39.9917C51.4035 38.4004 49.5363 36.1386 48.4337 33.4924C47.3312 30.8462 47.0427 27.9343 47.6048 25.1251C48.1669 22.3158 49.5543 19.7354 51.5916 17.71C53.6289 15.6847 56.2246 14.3054 59.0504 13.7466C61.8762 13.1878 64.8053 13.4746 67.4671 14.5707C70.129 15.6668 72.4042 17.523 74.0049 19.9046C75.6056 22.2861 76.4599 25.0861 76.4599 27.9504C76.4599 31.7912 74.9251 35.4748 72.1932 38.1907C69.4613 40.9066 65.7559 42.4324 61.8924 42.4324Z" fill="black"/>
<path d="M282.445 0.470599C277.001 0.441923 271.67 2.02068 267.129 5.00678C262.588 7.99289 259.042 12.2519 256.938 17.2441C254.835 22.2363 254.269 27.7369 255.314 33.0489C256.358 38.3608 258.965 43.245 262.805 47.0823C266.644 50.9196 271.544 53.5375 276.881 54.604C282.219 55.6705 287.755 55.1377 292.788 53.0731C297.82 51.0085 302.123 47.5051 305.151 43.0068C308.179 38.5085 309.795 33.2179 309.795 27.8054C309.796 20.5808 306.919 13.6499 301.794 8.52781C296.669 3.40568 289.712 0.508875 282.445 0.470599ZM282.445 42.4323C279.564 42.4323 276.747 41.5829 274.352 39.9916C271.956 38.4003 270.089 36.1385 268.986 33.4923C267.884 30.846 267.595 27.9342 268.157 25.125C268.719 22.3157 270.107 19.7353 272.144 17.7099C274.181 15.6846 276.777 14.3053 279.603 13.7465C282.429 13.1877 285.358 13.4745 288.02 14.5706C290.682 15.6667 292.957 17.5229 294.557 19.9045C296.158 22.286 297.012 25.086 297.012 27.9503C297.012 31.7911 295.478 35.4747 292.746 38.1906C290.014 40.9065 286.308 42.4323 282.445 42.4323Z" fill="black"/>
<path d="M33.2308 14.1926L38.5479 2.64321L38.0016 1.59326H0.235291V14.1926V54.0544H13.4189V35.3002H29.6253V23.7508H13.4189V14.1926H33.2308Z" fill="black"/>
<path d="M170.785 1.59326H127.191L126.718 2.64321L132.254 14.1926H143.325V54.0544H156.509V14.1926H170.785V1.59326Z" fill="black"/>
<path d="M184.405 1.59326L161.789 52.9683L162.299 54.0544H174.791L178.433 44.8945H200.685L204.327 54.0544H216.818L217.328 52.9321L194.821 1.59326H184.405ZM182.621 34.5761L189.613 16.9804L196.642 34.5399L182.621 34.5761Z" fill="black"/>
<path d="M127.119 18.32C127.119 16.1234 126.683 13.9483 125.838 11.919C124.992 9.88958 123.753 8.04563 122.19 6.49241C120.628 4.93919 118.773 3.70711 116.732 2.86651C114.691 2.02591 112.503 1.59326 110.293 1.59326H85.5282L85.0548 2.64321L90.6997 14.1926H110.22C111.39 14.2953 112.479 14.8299 113.272 15.6911C114.065 16.5522 114.505 17.6774 114.505 18.845C114.505 20.0125 114.065 21.1378 113.272 21.9989C112.479 22.86 111.39 23.3946 110.22 23.4973H94.1959V35.0468H103.191L112.041 54.0544H125.079L125.553 53.0407L115.902 34.0692C119.179 32.9174 122.016 30.7849 124.025 27.9648C126.033 25.1447 127.114 21.7754 127.119 18.32Z" fill="black"/>
<path d="M248.903 40.2963C246.685 41.5162 244.186 42.1397 241.651 42.1052C239.117 42.0708 236.636 41.3795 234.452 40.0998C232.269 38.8201 230.459 36.9962 229.202 34.8083C227.944 32.6204 227.283 30.1443 227.283 27.6246C227.283 25.1048 227.944 22.6287 229.202 20.4408C230.459 18.2529 232.269 16.429 234.452 15.1493C236.636 13.8696 239.117 13.1783 241.651 13.1439C244.186 13.1094 246.685 13.7329 248.903 14.9528L251.307 16.3286L256.915 5.17741C252.782 2.38553 247.961 0.766315 242.971 0.4938C237.982 0.221286 233.011 1.30578 228.595 3.63071C224.179 5.95564 220.483 9.4331 217.906 13.6893C215.329 17.9455 213.967 22.8195 213.967 27.7875C213.967 32.7554 215.329 37.6295 217.906 41.8857C220.483 46.1419 224.179 49.6193 228.595 51.9443C233.011 54.2692 237.982 55.3537 242.971 55.0812C247.961 54.8087 252.782 53.1894 256.915 50.3976L251.525 38.993L248.903 40.2963Z" fill="black"/>
</g>
<defs>
<clipPath id="clip0_49_6">
<rect width="309.706" height="54.7059" fill="white" transform="translate(0.235291 0.470703)"/>
</clipPath>
</defs>
</svg>
