<svg width="307" height="61" viewBox="0 0 307 61" fill="none" xmlns="http://www.w3.org/2000/svg">
<g clip-path="url(#clip0_49_25)">
<path d="M29.078 37.8673V28.0582H54.149V51.2434C51.7084 53.4727 48.1586 55.7021 43.4994 57.4855C38.8401 59.269 34.1809 60.1608 29.5217 60.1608C23.3095 60.1608 18.2065 58.8231 13.7692 56.3709C9.33183 53.9186 5.78196 50.1287 3.56329 45.4471C1.34462 40.7655 0.235286 35.638 0.235286 30.0646C0.235286 24.0454 1.56649 18.472 4.00703 13.7904C6.44756 9.10878 10.2193 5.54183 15.1004 3.08955C18.6502 1.08314 23.3095 0.191406 28.8561 0.191406C35.9559 0.191406 41.5026 1.75195 45.4962 4.65009C49.4898 7.77117 52.1522 12.0069 53.2615 17.3574L41.7244 19.3638C40.837 16.6885 39.5057 14.2363 37.2871 12.6757C34.8465 11.1152 32.1841 10.2235 28.8561 10.2235C23.7532 10.2235 19.7596 11.784 16.6534 15.128C13.7692 18.2491 12.2161 23.1536 12.2161 29.6187C12.2161 36.3068 13.7692 41.6572 16.8753 45.0012C19.7596 48.3452 23.7532 50.1287 28.6343 50.1287C31.0748 50.1287 33.5153 49.6828 35.9559 48.7911C38.3964 47.6764 40.6151 46.5618 42.39 45.2241V37.8673H29.078Z" fill="#638098"/>
<path d="M88.9821 45.8929L99.8536 47.6764C98.5224 51.6892 96.3037 54.8103 93.1976 57.0397C90.0914 59.0461 86.3197 60.1607 81.6605 60.1607C74.5607 60.1607 69.2359 57.7085 65.6861 53.0268C62.8018 49.237 61.4706 44.3324 61.4706 38.5361C61.4706 31.6251 63.2455 26.0518 67.0173 22.2619C70.5671 18.2491 75.2263 16.2427 80.5511 16.2427C86.7634 16.2427 91.6445 18.2491 95.4162 22.4848C98.9661 26.4977 100.519 32.9628 100.519 41.4343H72.7858C73.0077 44.7783 73.8951 47.2306 75.4482 49.014C77.2231 51.0204 79.4418 51.9122 81.8824 51.9122C83.6573 51.9122 84.9885 51.4663 86.3197 50.3516C87.429 49.4599 88.3165 47.8994 88.9821 45.8929ZM89.4258 34.5233C89.4258 31.4022 88.5384 28.9499 86.9853 27.3894C85.4322 25.6059 83.6573 24.7142 81.4386 24.7142C78.9981 24.7142 77.0013 25.6059 75.4482 27.3894C73.8951 29.1729 73.0077 31.6251 73.0077 34.5233H89.4258Z" fill="#638098"/>
<path d="M128.474 17.1344V26.0517H120.931V42.9947C120.931 46.3388 121.153 48.3452 121.153 49.014C121.375 49.4598 121.597 50.1286 122.262 50.3516C122.706 50.7974 123.371 51.0204 124.037 51.0204C125.146 51.0204 126.478 50.5745 128.474 49.9057L129.362 58.6001C126.921 59.7148 124.037 60.1607 120.709 60.1607C118.712 60.1607 116.937 59.9378 115.384 59.2689C113.831 58.6001 112.722 57.7084 111.834 56.5937C111.169 55.4791 110.725 54.1415 110.281 52.135C110.059 50.7974 110.059 48.3452 110.059 44.3323V26.0517H104.957V17.1344H110.059V8.88578L120.931 2.19775V17.1344H128.474Z" fill="#638098"/>
<path d="M181.057 59.0461V1.30615H199.694C206.793 1.30615 211.453 1.52909 213.671 2.19789C216.777 3.08963 219.662 4.8731 221.88 7.77125C224.099 10.6694 225.208 14.4593 225.208 19.1409C225.208 22.7078 224.543 25.606 223.212 28.0583C221.88 30.5105 220.327 32.294 218.331 33.6316C216.334 35.1922 214.337 36.0839 212.34 36.5298C209.678 36.9756 205.684 37.1986 200.359 37.1986H192.816V59.0461H181.057ZM192.816 11.1153V27.6124H199.028C203.687 27.6124 206.793 27.1665 208.347 26.4977C209.9 26.0519 211.009 25.1601 211.896 23.8225C212.784 22.4849 213.228 20.9244 213.228 19.1409C213.228 17.1345 212.562 15.351 211.453 14.0134C210.121 12.6758 208.568 11.7841 206.793 11.3382C205.24 11.1153 202.578 11.1153 198.363 11.1153H192.816Z" fill="#638098"/>
<path d="M245.176 59.0461H234.305V17.1344H244.511V23.1536C246.286 20.2555 247.839 18.472 249.17 17.5803C250.501 16.6885 252.276 16.2427 254.051 16.2427C256.492 16.2427 258.932 16.9115 261.151 18.472L257.823 28.0582C256.048 26.7206 254.273 26.2747 252.72 26.2747C251.167 26.2747 249.836 26.7206 248.726 27.6123C247.617 28.2811 246.73 29.8417 246.064 32.071C245.62 34.3004 245.176 38.982 245.176 46.1159V59.0461Z" fill="#638098"/>
<path d="M263.37 37.6444C263.37 33.8545 264.257 30.2875 266.032 26.9435C268.029 23.3766 270.469 20.9243 273.797 18.9179C277.125 17.1344 280.897 16.2427 284.891 16.2427C291.325 16.2427 296.428 18.2491 300.421 22.4848C304.415 26.4977 306.412 31.8481 306.412 38.0902C306.412 44.5553 304.415 49.6828 300.421 53.9186C296.206 58.1543 291.103 60.1607 284.891 60.1607C281.119 60.1607 277.569 59.269 274.019 57.4855C270.691 55.925 268.029 53.2498 266.032 49.9058C264.257 46.5617 263.37 42.5489 263.37 37.6444ZM274.685 38.3132C274.685 42.326 275.794 45.67 277.791 47.8994C279.566 49.9058 282.006 51.0204 284.891 51.0204C287.775 51.0204 290.215 49.9058 292.212 47.8994C294.209 45.67 295.097 42.326 295.097 38.0902C295.097 34.0774 294.209 30.9563 292.212 28.727C290.215 26.4977 287.775 25.383 284.891 25.383C282.006 25.383 279.566 26.4977 277.791 28.727C275.794 30.9563 274.685 34.0774 274.685 38.3132Z" fill="#638098"/>
<path fill-rule="evenodd" clip-rule="evenodd" d="M155.32 19.3638C166.414 19.3638 175.51 28.5041 175.51 39.8737C175.51 45.0012 173.735 49.6828 170.629 53.2498C170.629 52.581 170.629 52.1351 170.629 51.4663V42.9948C170.629 39.8737 170.407 37.6444 169.742 36.5297C169.076 35.415 167.967 34.3004 166.414 33.6316C164.861 32.7398 162.42 32.5169 159.092 32.5169C155.542 32.5169 152.88 33.1857 151.105 34.3004C149.33 35.638 147.999 37.6444 147.333 40.3196L153.767 41.4343C154.211 40.0967 154.877 39.2049 155.542 38.7591C156.208 38.3132 157.317 38.0903 158.648 38.0903C160.423 38.0903 161.754 38.3132 162.42 38.982C163.086 39.4279 163.529 40.5425 163.529 41.8801V42.7719C162.198 43.2177 159.98 43.8865 156.43 44.5554C153.989 45.0012 151.992 45.4471 150.661 46.1159C149.33 46.7847 148.442 47.6764 147.555 49.014C146.889 50.1287 146.446 51.4663 146.446 53.0269C146.446 55.4791 147.333 57.2626 148.886 58.8232C149.108 59.0461 149.33 59.269 149.552 59.269C141.121 56.8167 134.909 49.014 134.909 39.8737C134.909 28.5041 144.005 19.3638 155.32 19.3638ZM163.529 47.4535C162.642 47.6764 161.089 48.1223 159.092 48.5682C157.095 49.014 155.764 49.237 155.098 49.6828C154.211 50.3516 153.767 51.2434 153.767 52.3581C153.767 53.2498 154.211 54.1415 154.877 55.0333C155.764 55.7021 156.652 56.1479 157.761 56.1479C159.092 56.1479 160.423 55.7021 161.533 54.8103C162.42 54.1415 163.086 53.2498 163.308 52.3581C163.529 51.6893 163.529 50.5746 163.529 48.7911V47.4535Z" fill="#EE8333"/>
</g>
<defs>
<clipPath id="clip0_49_25">
<rect width="306.176" height="60" fill="white" transform="translate(0.235291 0.17627)"/>
</clipPath>
</defs>
</svg>
