<svg width="100" height="100" viewBox="0 0 100 100" fill="none" xmlns="http://www.w3.org/2000/svg">
<rect width="100" height="100" rx="5" fill="#F45700"/>
<path d="M49.4647 81.5833C48.4862 81.5833 47.5803 81.066 47.0831 80.2238L44.0508 75.0947C37.8243 64.5691 31.9443 54.6277 29.9354 50.5954C28.4749 47.6005 27.7398 44.4029 27.7398 41.0711C27.7398 29.0918 37.4854 19.3462 49.4647 19.3462C61.444 19.3462 71.1896 29.0918 71.1896 41.0711C71.1896 44.4008 70.4545 47.5977 69.0065 50.5733C68.9892 50.6093 68.9698 50.6452 68.9511 50.6805C66.9035 54.7667 61.0609 64.6444 54.8766 75.0975L51.8463 80.2238C51.3491 81.066 50.4432 81.5833 49.4647 81.5833Z" fill="white"/>
<path d="M49.4647 50.9336C43.6047 50.9336 38.8367 46.1662 38.8367 40.3062C38.8367 34.4463 43.6047 29.6782 49.4647 29.6782C55.3247 29.6782 60.092 34.4463 60.092 40.3062C60.092 46.1662 55.3247 50.9336 49.4647 50.9336Z" fill="#F45700"/>
</svg>
