<svg width="100" height="100" viewBox="0 0 100 100" fill="none" xmlns="http://www.w3.org/2000/svg">
<rect width="100" height="100" rx="5" fill="#F45700"/>
<g clip-path="url(#clip0_49_150)">
<path d="M49.9664 54.1738L79.6031 31.733V30.4297C79.6031 29.0847 78.5191 27.9941 77.1821 27.9941H22.7507C21.4137 27.9941 20.3297 29.0847 20.3297 30.4297V31.733L49.9664 54.1738Z" fill="white"/>
<path d="M51.5503 59.6095C51.0814 59.9646 50.5236 60.1422 49.9664 60.1422C49.4092 60.1422 48.8514 59.9646 48.3825 59.6095L20.3297 38.3672V68.8873C20.3297 70.2323 21.4137 71.3228 22.7507 71.3228H77.1821C78.5191 71.3228 79.6031 70.2323 79.6031 68.8873V38.3672L51.5503 59.6095Z" fill="white"/>
</g>
<defs>
<clipPath id="clip0_49_150">
<rect x="20" y="28" width="60" height="43.3846" rx="5" fill="white"/>
</clipPath>
</defs>
</svg>
