<svg width="100" height="100" viewBox="0 0 100 100" fill="none" xmlns="http://www.w3.org/2000/svg">
<rect width="100" height="100" rx="5" fill="#F45700"/>
<g clip-path="url(#clip0_49_143)">
<path d="M46.0323 54.8946L53.7921 62.6544C54.487 63.3493 55.5551 63.5063 56.4205 63.0418L65.72 58.0496C66.4078 57.68 67.239 57.6979 67.9104 58.0967L81.4785 66.1483C82.4467 66.7226 82.8363 67.9241 82.3832 68.9544C81.2238 71.5928 79.1134 76.4288 78.275 78.5671C78.0988 79.0173 77.8362 79.4296 77.4709 79.7457C68.4283 87.584 50.4373 78.0334 36.6665 64.2626C22.8936 50.491 13.343 32.5 21.1812 23.4574C21.498 23.0921 21.9104 22.8295 22.3599 22.6533C24.4975 21.815 29.3341 19.7045 31.9725 18.5451C33.0028 18.0921 34.2043 18.4816 34.7786 19.4498L42.8302 33.018C43.2283 33.6894 43.2462 34.5206 42.8773 35.2084L37.8851 44.5064C37.4207 45.3718 37.5776 46.4399 38.2725 47.1348L46.0323 54.8946Z" fill="white"/>
</g>
<defs>
<clipPath id="clip0_49_143">
<rect x="18" y="18" width="65" height="65" rx="5" fill="white"/>
</clipPath>
</defs>
</svg>
