<svg width="168" height="121" viewBox="0 0 168 121" fill="none" xmlns="http://www.w3.org/2000/svg">
<path d="M162.893 28.0056L89.9136 2.04482C85.3608 0.341904 86.3184 0.324527 81.7992 2.02744L8.39999 27.7623C3.88079 29.4479 3.91439 32.1934 8.46719 33.8963L25.9056 40.0129C18.1776 47.7629 17.6736 55.8083 17.5728 65.1396C14.5824 66.3212 12.4656 69.3274 12.4656 72.8375C12.4656 76.0522 14.2464 78.8498 16.8504 80.2052C15.624 89.6929 12.0792 100.536 1.67999 113.377C6.82079 117.496 9.47519 118.868 13.4736 120.241C28.0224 113.777 26.2416 96.6088 25.116 79.5275C27.1152 78.0331 28.4088 75.6004 28.4088 72.8548C28.4088 69.9182 26.9136 67.3291 24.6624 65.8694C24.9144 56.7293 26.8464 48.5448 33.4656 43.245C33.516 43.1059 33.6672 42.9843 33.9528 42.8627L84.1176 21.889C85.9824 21.1244 88.0992 22.0454 88.8384 23.9742L88.9056 24.148C89.6448 26.0768 88.7544 28.2662 86.8896 29.0308L44.4864 46.5465L82.4208 59.8571C86.9736 61.56 86.016 61.5774 90.5352 59.8745L162.96 34.1396C167.462 32.454 167.446 29.7085 162.893 28.0056ZM82.32 69.8139L36.3888 53.7231V65.8347C38.7912 68.111 40.1184 71.3778 40.1184 74.9922C40.1184 78.259 39.0096 81.213 37.1616 83.4372C37.7664 85.3313 38.8248 87.1906 40.3368 87.7814C67.0656 103.056 104.009 102.899 133.711 86.2349C135.912 84.3408 137.626 81.995 137.626 79.7186V53.0454L90.4512 69.8487C85.9488 71.5342 86.856 71.5168 82.32 69.8139Z" fill="#F45700"/>
</svg>
