<svg width="173" height="121" viewBox="0 0 173 121" fill="none" xmlns="http://www.w3.org/2000/svg">
<g clip-path="url(#clip0_17_243)">
<path fill-rule="evenodd" clip-rule="evenodd" d="M60.55 75.625C40.309 75.625 0 85.7371 0 105.875V121H121.1V105.875C121.1 85.7371 80.791 75.625 60.55 75.625ZM20.241 103.714C27.507 98.7014 45.0665 92.9107 60.55 92.9107C76.0335 92.9107 93.593 98.7014 100.859 103.714H20.241ZM60.55 60.5C77.2445 60.5 90.825 46.9307 90.825 30.25C90.825 13.5693 77.2445 0 60.55 0C43.8555 0 30.275 13.5693 30.275 30.25C30.275 46.9307 43.8555 60.5 60.55 60.5ZM60.55 17.2857C67.7295 17.2857 73.525 23.0764 73.525 30.25C73.525 37.4236 67.7295 43.2143 60.55 43.2143C53.3705 43.2143 47.575 37.4236 47.575 30.25C47.575 23.0764 53.3705 17.2857 60.55 17.2857ZM121.446 76.1436C131.48 83.4036 138.4 93.0836 138.4 105.875V121H173V105.875C173 88.4164 142.725 78.4771 121.446 76.1436ZM112.45 60.5C129.145 60.5 142.725 46.9307 142.725 30.25C142.725 13.5693 129.145 0 112.45 0C107.779 0 103.454 1.12357 99.475 3.025C104.924 10.7171 108.125 20.1379 108.125 30.25C108.125 40.3621 104.924 49.7829 99.475 57.475C103.454 59.3764 107.779 60.5 112.45 60.5Z" fill="#F45700"/>
</g>
<defs>
<clipPath id="clip0_17_243">
<rect width="173" height="121" fill="white"/>
</clipPath>
</defs>
</svg>
