<svg width="100" height="100" viewBox="0 0 100 100" fill="none" xmlns="http://www.w3.org/2000/svg">
<rect width="100" height="100" rx="5" fill="#F45700"/>
<g clip-path="url(#clip0_49_154)">
<path d="M78.3303 59.8696C79.4105 56.7772 80 53.4564 80 50C80 46.5436 79.4105 43.2228 78.3303 40.1304C78.3039 40.0376 78.2726 39.947 78.2348 39.8598C74.0679 28.293 62.9849 20 50 20C37.0151 20 25.9318 28.293 21.7652 39.8598C21.7274 39.9472 21.6958 40.0376 21.6697 40.1304C20.5895 43.2228 20 46.5436 20 50C20 53.4564 20.5895 56.7772 21.6697 59.8696C21.6961 59.9624 21.7274 60.053 21.7652 60.1402C25.9321 71.7073 37.0151 80 50 80C62.9849 80 74.0679 71.707 78.2348 60.1402C78.2726 60.053 78.3039 59.9627 78.3303 59.8696ZM50 75.6998C48.8575 75.6998 47.0155 73.6322 45.4759 69.0129C44.7327 66.7838 44.1378 64.2213 43.7044 61.4338H56.2956C55.8622 64.2213 55.2673 66.7835 54.5244 69.0129C52.9845 73.6322 51.1425 75.6998 50 75.6998ZM43.1826 57.1333C42.9758 54.8403 42.8666 52.4481 42.8666 50C42.8666 47.5519 42.9758 45.1597 43.1826 42.8667H56.8172C57.0239 45.1597 57.1331 47.5519 57.1331 50C57.1331 52.4481 57.0239 54.8403 56.8172 57.1333H43.1826ZM24.3002 50.0003C24.3002 47.5261 24.6526 45.1327 25.3082 42.867H38.8692C38.6682 45.2073 38.5661 47.6058 38.5661 50.0003C38.5661 52.3948 38.6679 54.7933 38.8692 57.1336H25.3082C24.6526 54.8675 24.3002 52.4745 24.3002 50.0003ZM50 24.3005C51.1425 24.3005 52.9848 26.3681 54.5244 30.9874C55.2673 33.2165 55.8624 35.779 56.2956 38.5662H43.7041C44.1376 35.7787 44.7325 33.2165 45.4756 30.9874C47.0155 26.3681 48.8575 24.3005 50 24.3005ZM61.1306 42.867H74.6915C75.3471 45.1327 75.6995 47.5261 75.6995 50.0003C75.6995 52.4745 75.3471 54.8678 74.6915 57.1336H61.1306C61.3315 54.7933 61.4336 52.3948 61.4336 50.0003C61.4336 47.6058 61.3315 45.2073 61.1306 42.867ZM73.0111 38.5665H60.6371C59.8722 33.2921 58.56 28.5602 56.7191 25.1938C63.8565 27.1287 69.7697 32.0688 73.0111 38.5665ZM43.2806 25.1935C41.4397 28.5599 40.1275 33.2919 39.3626 38.5665H26.9886C30.2303 32.0688 36.1432 27.1287 43.2806 25.1935ZM26.9886 61.4338H39.3626C40.1275 66.7081 41.4397 71.4401 43.2806 74.8068C36.1432 72.8716 30.2303 67.9318 26.9886 61.4338ZM56.7191 74.8068C58.56 71.4404 59.8722 66.7084 60.6371 61.4338H73.0111C69.7697 67.9318 63.8565 72.8716 56.7191 74.8068Z" fill="white"/>
</g>
<defs>
<clipPath id="clip0_49_154">
<rect x="20" y="20" width="60" height="60" rx="5" fill="white"/>
</clipPath>
</defs>
</svg>
